HIERARCHY
ROOT SpineBase
{
  OFFSET 0.000000 0.000000 0.000000
  CHANNELS 6 Xposition Yposition Zposition Zrotation Xrotation Yrotation
  JOINT SpineMid
  {
    OFFSET 0.000000 28.624749 0.000000
    CHANNELS 3 Zrotation Xrotation Yrotation
    JOINT SpineShoulder
    {
      OFFSET 0.078883 21.316017 -0.399562
      CHANNELS 3 Zrotation Xrotation Yrotation
      JOINT Neck
      {
        OFFSET 0.053522 7.071870 -0.368846
        CHANNELS 3 Zrotation Xrotation Yrotation
        JOINT Head
        {
          OFFSET 4.600731 13.470291 -1.340796
          CHANNELS 3 Zrotation Xrotation Yrotation
          End Site
          {
            OFFSET 0 0 0
          }
        }
      }
      JOINT ShoulderLeft
      {
        OFFSET -10.613751 -2.073791 -10.658535
        CHANNELS 3 Zrotation Xrotation Yrotation
        JOINT ElbowLeft
        {
          OFFSET -3.520063 -25.368068 -5.446715
          CHANNELS 3 Zrotation Xrotation Yrotation
          JOINT WristLeft
          {
            OFFSET 3.767483 -20.364544 -2.896297
            CHANNELS 3 Zrotation Xrotation Yrotation
            JOINT HandLeft
            {
              OFFSET 1.108151 -5.302546 0.561520
              CHANNELS 3 Zrotation Xrotation Yrotation
              JOINT HandTipLeft
              {
                OFFSET 1.503779 -6.418214 0.192245
                CHANNELS 3 Zrotation Xrotation Yrotation
                End Site
                {
                  OFFSET 0 0 0
                }
              }
              JOINT ThumbLeft
              {
                OFFSET 3.291224 0.606841 -1.579096
                CHANNELS 3 Zrotation Xrotation Yrotation
                End Site
                {
                  OFFSET 0 0 0
                }
              }
            }
          }
        }
      }
      JOINT ShoulderRight
      {
        OFFSET 12.851393 -3.974333 9.917125
        CHANNELS 3 Zrotation Xrotation Yrotation
        JOINT ElbowRight
        {
          OFFSET 0.689259 -25.158344 8.048827
          CHANNELS 3 Zrotation Xrotation Yrotation
          JOINT WristRight
          {
            OFFSET 0.551037 -24.152081 2.088848
            CHANNELS 3 Zrotation Xrotation Yrotation
            JOINT HandRight
            {
              OFFSET -0.805724 -4.763907 0.327287
              CHANNELS 3 Zrotation Xrotation Yrotation
              JOINT HandTipRight
              {
                OFFSET -1.048147 -4.228040 1.712191
                CHANNELS 3 Zrotation Xrotation Yrotation
                End Site
                {
                  OFFSET 0 0 0
                }
              }
              JOINT ThumbRight
              {
                OFFSET 2.635337 -0.495955 -0.279803
                CHANNELS 3 Zrotation Xrotation Yrotation
                End Site
                {
                  OFFSET 0 0 0
                }
              }
            }
          }
        }
      }
    }
  }
  JOINT HipLeft
  {
    OFFSET -5.059200 1.096408 -6.720276
    CHANNELS 3 Zrotation Xrotation Yrotation
    JOINT KneeLeft
    {
      OFFSET -7.447732 -25.529794 0.341599
      CHANNELS 3 Zrotation Xrotation Yrotation
      JOINT AnkleLeft
      {
        OFFSET -6.889309 -34.922846 4.976439
        CHANNELS 3 Zrotation Xrotation Yrotation
        JOINT FootLeft
        {
          OFFSET 6.714513 -3.844751 -10.211990
          CHANNELS 3 Zrotation Xrotation Yrotation
          End Site
          {
            OFFSET 0 0 0
          }
        }
      }
    }
  }
  JOINT HipRight
  {
    OFFSET 5.771888 0.454870 1.058642
    CHANNELS 3 Zrotation Xrotation Yrotation
    JOINT KneeRight
    {
      OFFSET -4.637989 -27.784308 6.100570
      CHANNELS 3 Zrotation Xrotation Yrotation
      JOINT AnkleRight
      {
        OFFSET -7.392188 -31.095447 3.887818
        CHANNELS 3 Zrotation Xrotation Yrotation
        JOINT FootRight
        {
          OFFSET 3.421940 -7.481203 -4.022487
          CHANNELS 3 Zrotation Xrotation Yrotation
          End Site
          {
            OFFSET 0 0 0
          }
        }
      }
    }
  }
}
MOTION
Frames: 9
Frame Time: 0.033333
-32.643651 69.467219 343.131126 -0.000000 0.000000 -35.686018 0.000000 0.000000 35.686018 -0.000000 0.000000 0.000000 -0.000000 0.000000 0.000000 0.000000 0.000000 0.000000 -0.000000 0.000000 0.000000 -0.000000 0.000000 0.000000 -0.000000 0.000000 0.000000 -0.000000 0.000000 0.000000 0.000000 0.000000 0.000000 0.000000 0.000000 0.000000 -0.000000 0.000000 0.000000 -0.000000 0.000000 0.000000 -0.000000 0.000000 0.000000 -0.000000 0.000000 0.000000 0.000000 0.000000 0.000000 0.000000 0.000000 0.000000 0.000000 0.000000 35.686018 -0.000000 0.000000 0.000000 -0.000000 0.000000 0.000000 0.000000 0.000000 0.000000 0.000000 0.000000 35.686018 -0.000000 0.000000 0.000000 -0.000000 0.000000 0.000000 0.000000 0.000000 0.000000
-32.501036 69.457068 343.309880 0.046690 -0.126198 -35.097781 -0.110761 0.076406 35.097906 -0.000000 0.000000 0.000000 -0.000000 0.000000 0.000000 0.000000 0.000000 0.000000 -0.000000 0.000000 0.000000 -0.000000 0.000000 0.000000 0.888062 -0.785645 -0.063907 -0.889021 0.784559 0.076083 0.000000 0.000000 0.000000 0.000000 0.000000 0.000000 -0.296007 0.759879 -0.072077 0.296989 -0.759495 0.076009 0.540007 14.572263 -2.533805 18.772483 7.052683 7.199139 0.000000 0.000000 0.000000 0.000000 0.000000 0.000000 -0.110761 0.076406 35.097906 -0.000000 0.000000 0.000000 -0.000000 0.000000 0.000000 0.000000 0.000000 0.000000 -0.110761 0.076406 35.097906 -0.000000 0.000000 0.000000 -4.692832 -5.547315 -0.253543 0.000000 0.000000 0.000000
-32.366003 69.448195 343.454068 0.101373 -0.215846 -34.531941 -0.205868 0.120351 34.532348 -0.000000 0.000000 0.000000 0.796376 0.284512 -0.019934 0.000000 0.000000 0.000000 -0.128641 -1.272266 0.203191 1.029234 0.811977 -0.434316 0.692319 -0.857610 0.114379 -1.589385 1.313571 0.124943 0.000000 0.000000 0.000000 0.000000 0.000000 0.000000 -0.531449 1.516886 -0.121962 0.534863 -1.515686 0.136073 1.393444 24.340374 -4.457556 32.457632 20.021894 12.339443 0.000000 0.000000 0.000000 0.000000 0.000000 0.000000 -0.205868 0.120351 34.532348 -0.335372 0.784280 -0.200293 0.338143 -0.783090 0.204899 0.000000 0.000000 0.000000 -0.205868 0.120351 34.532348 -0.000000 0.000000 0.000000 -7.995756 -8.825174 -0.384813 0.000000 0.000000 0.000000
-32.238554 69.440600 343.563689 0.164049 -0.268792 -33.988022 -0.286283 0.131162 33.988735 -0.000000 0.000000 0.000000 1.145923 0.341661 -0.006067 0.000000 0.000000 0.000000 -0.201531 -1.779656 0.287994 1.406310 1.304844 -0.583035 0.869132 -1.079719 0.167201 -3.259710 1.724523 0.173859 0.000000 0.000000 0.000000 0.000000 0.000000 0.000000 -0.706823 2.270790 -0.150887 0.702432 -1.066902 0.205530 2.227848 29.138636 -5.806776 38.666179 28.927575 14.718355 0.000000 0.000000 0.000000 0.000000 0.000000 0.000000 -0.286283 0.131162 33.988735 -0.450323 1.045158 -0.266389 0.188347 -0.801527 1.398264 0.000000 0.000000 0.000000 -0.286283 0.131162 33.988735 -0.000000 0.000000 0.000000 -9.820510 -9.830784 -0.066827 0.000000 0.000000 0.000000
-32.118688 69.434282 343.638745 0.234713 -0.284914 -33.465584 -0.352914 0.108249 33.466501 -0.000000 0.000000 0.000000 1.463635 0.342533 0.024442 0.000000 0.000000 0.000000 -0.280723 -2.201571 0.361775 1.699166 1.850032 -0.684812 0.879653 -1.104647 0.220851 -4.041293 1.562769 0.111396 0.000000 0.000000 0.000000 0.000000 0.000000 0.000000 -0.822595 3.021451 -0.160064 0.784630 -0.961321 0.245575 2.906460 31.557125 -6.620308 40.748394 33.606264 15.505661 0.000000 0.000000 0.000000 0.000000 0.000000 0.000000 -0.352914 0.108249 33.466501 -0.530179 1.217426 -0.310276 0.195348 -0.887220 1.788642 0.000000 0.000000 0.000000 -1.294202 0.293982 33.207288 0.685899 -0.670874 0.266532 -10.169360 -8.590178 0.848713 0.000000 0.000000 0.000000
-32.006406 69.429242 343.679233 0.313351 -0.264124 -32.964224 -0.406619 0.051100 32.965128 -0.000000 0.000000 0.000000 1.749938 0.287289 0.072081 0.000000 0.000000 0.000000 -0.366618 -2.538118 0.424670 1.911763 2.444381 -0.738492 0.687719 -0.893233 0.277838 -4.619425 0.973684 -0.043212 0.000000 0.000000 0.000000 0.000000 0.000000 0.000000 -0.879188 3.768812 -0.150682 0.790104 -0.614806 0.269381 3.365081 31.633889 -6.925939 40.938096 35.753266 14.914445 0.000000 0.000000 0.000000 0.000000 0.000000 0.000000 -0.406619 0.051100 32.965128 -0.574923 1.300481 -0.332168 0.173753 -0.881034 2.140989 0.000000 0.000000 0.000000 -1.511306 0.247271 32.660032 0.824227 -0.761247 0.313447 -9.102165 -5.048834 2.331200 0.000000 0.000000 0.000000
-31.896926 69.433271 343.653385 0.435680 -0.164860 -32.342058 -0.456288 -0.093794 32.342312 -0.000000 0.000000 0.000000 1.970262 0.142697 0.145817 0.000000 0.000000 0.000000 -0.373613 -2.875682 0.472281 2.097005 3.406245 -0.723124 0.128392 1.161270 0.670270 -4.958778 -1.807195 -0.801040 0.000000 0.000000 0.000000 0.000000 0.000000 0.000000 -0.754960 4.680591 -0.083483 0.690252 0.016277 0.244718 3.564556 27.648502 -6.357944 38.546272 33.081323 13.035732 0.000000 0.000000 0.000000 0.000000 0.000000 0.000000 -0.456288 -0.093794 32.342312 -0.575148 1.269159 -0.326159 0.110067 -0.740098 2.488823 0.000000 0.000000 0.000000 -1.667494 0.046769 32.005610 0.952655 -0.761104 0.342532 -5.258737 5.218904 5.435029 0.000000 0.000000 0.000000
-31.791299 69.432730 343.608679 0.562042 -0.050394 -31.858813 -0.503973 -0.253857 31.857944 -0.000000 0.000000 0.000000 2.161368 -0.061496 0.238852 0.000000 0.000000 0.000000 -0.592901 -2.972667 0.527050 2.205243 4.129114 -0.661579 -0.500603 3.438923 1.048925 -5.789174 -5.456648 -1.901319 0.000000 0.000000 0.000000 0.000000 0.000000 0.000000 -0.653008 5.506551 -0.026954 0.504349 1.064458 0.222313 2.799869 23.722874 -5.729689 35.963101 33.158808 9.136004 0.000000 0.000000 0.000000 0.000000 0.000000 0.000000 -0.503973 -0.253857 31.857944 -0.542040 1.138383 -0.296576 0.020580 -0.501538 2.786579 0.000000 0.000000 0.000000 -1.847079 -0.161803 31.481889 1.097364 -0.779904 0.378651 -2.825923 12.570805 7.246654 0.000000 0.000000 0.000000
-31.714391 69.431944 343.545955 0.655172 0.070874 -31.489841 -0.521677 -0.402656 31.487603 -0.000000 0.000000 0.000000 2.359816 -0.286235 0.340893 0.000000 0.000000 0.000000 -0.778012 -2.910173 0.553680 2.071279 4.559100 -0.544395 -1.179271 4.466162 1.144234 -5.734625 -7.092593 -2.375512 0.000000 0.000000 0.000000 0.000000 0.000000 0.000000 -0.627838 6.130115 0.000876 0.304420 2.354040 0.223202 3.711084 14.999707 -4.215692 32.441045 34.985269 1.405540 0.000000 0.000000 0.000000 0.000000 0.000000 0.000000 -0.521677 -0.402656 31.487603 -0.474069 0.963363 -0.253714 -0.097307 -0.228395 3.036673 0.000000 0.000000 0.000000 -1.955764 -0.336827 31.083040 1.194184 -0.796788 0.403612 -1.223277 17.389437 8.210301 0.000000 0.000000 0.000000
